<svg width="512" height="512" viewBox="0 0 512 512" fill="none" xmlns="http://www.w3.org/2000/svg">
<g clip-path="url(#clip0_57_3)">
<path d="M4.11417 121.909H76.774L133.667 234.512H136.032L192.925 121.909H265.584L167.172 301.128V391H102.527V301.128L4.11417 121.909ZM292.848 391V121.909H404.006C424.153 121.909 441.54 125.851 456.169 133.734C470.884 141.53 482.228 152.436 490.199 166.451C498.17 180.379 502.156 196.584 502.156 215.066C502.156 233.636 498.083 249.885 489.936 263.812C481.878 277.652 470.359 288.383 455.38 296.004C440.401 303.624 422.62 307.435 402.035 307.435H333.448V256.192H389.947C399.758 256.192 407.948 254.484 414.517 251.067C421.174 247.651 426.211 242.877 429.627 236.746C433.044 230.527 434.752 223.3 434.752 215.066C434.752 206.745 433.044 199.562 429.627 193.518C426.211 187.386 421.174 182.656 414.517 179.327C407.86 175.999 399.67 174.335 389.947 174.335H357.887V391H292.848Z" fill="black"/>
</g>
<defs>
<clipPath id="clip0_57_3">
<rect width="512" height="512" fill="white"/>
</clipPath>
</defs>
</svg>
